<svg width="16" height="13" viewBox="0 0 16 13" fill="none" xmlns="http://www.w3.org/2000/svg">
<path fill-rule="evenodd" clip-rule="evenodd" d="M0.209705 5.8871L0.292893 5.79289L5.29289 0.792893C5.68342 0.402369 6.31658 0.402369 6.70711 0.792893C7.06759 1.15338 7.09532 1.72061 6.7903 2.1129L6.70711 2.20711L3.415 5.5H15C15.5523 5.5 16 5.94772 16 6.5C16 7.01284 15.614 7.43551 15.1166 7.49327L15 7.5H3.415L6.70711 10.7929C7.06759 11.1534 7.09532 11.7206 6.7903 12.1129L6.70711 12.2071C6.34662 12.5676 5.77939 12.5953 5.3871 12.2903L5.29289 12.2071L0.292893 7.20711C-0.0675907 6.84662 -0.0953203 6.27939 0.209705 5.8871Z" fill="#CF6854"/>
</svg>
