<svg width="26" height="22" viewBox="0 0 26 22" fill="none" xmlns="http://www.w3.org/2000/svg">
    <path d="M10.5171 17.8727V18.2681C10.5171 19.6385 11.6286 20.75 13.0001 20.75V20.75C14.3716 20.75 15.4831 19.6385 15.4831 18.267V17.8716" stroke="#425466" stroke-width="1.5" stroke-linecap="round" stroke-linejoin="round"/>
    <path d="M14.9858 4.23025V3.23575C14.9858 2.13942 14.0974 1.25 13 1.25V1.25C11.9026 1.25 11.0143 2.13942 11.0143 3.23575V4.23025" stroke="#425466" stroke-width="1.5" stroke-linecap="round" stroke-linejoin="round"/>
    <path fill-rule="evenodd" clip-rule="evenodd" d="M7.10996 9.037V9.037C7.10996 6.32542 9.30804 4.12842 12.0185 4.12842H13.9826C16.6942 4.12842 18.8912 6.3265 18.8912 9.037V9.037V12.0671C18.8912 12.6413 19.1198 13.1927 19.526 13.5989L20.2205 14.2933C20.6267 14.6996 20.8553 15.251 20.8553 15.8252V15.8252C20.8553 16.9562 19.9388 17.8727 18.8078 17.8727H7.19337C6.06237 17.8727 5.14587 16.9562 5.14587 15.8252V15.8252C5.14587 15.251 5.37446 14.6996 5.78071 14.2933L6.47512 13.5989C6.88137 13.1927 7.10996 12.6413 7.10996 12.0671V9.037Z" stroke="#425466" stroke-width="1.5" stroke-linecap="round" stroke-linejoin="round"/>
</svg>
