<svg width="125" height="32" viewBox="0 0 125 32" fill="none" xmlns="http://www.w3.org/2000/svg">
<g clip-path="url(#clip0)">
<path d="M15.4217 24.7099C17.3277 22.6211 19.2051 19.7666 18.7096 17.4273C18.3045 15.0644 16.5272 14.2751 15.3455 14.2988C14.1638 14.3224 12.3817 15.0549 11.9814 17.4273C11.5049 19.7666 13.3775 22.6258 15.2692 24.7099C12.3832 24.6899 9.62277 23.5362 7.5927 21.5016C5.56262 19.467 4.4284 16.7172 4.43848 13.8548C4.44857 10.9924 5.60215 8.25059 7.64651 6.23007C9.69088 4.20956 12.4594 3.07504 15.3455 3.07504C18.2316 3.07504 21.0001 4.20956 23.0444 6.23007C25.0888 8.25059 26.2424 10.9924 26.2525 13.8548C26.2626 16.7172 25.1283 19.467 23.0983 21.5016C21.0682 23.5362 18.3078 24.6899 15.4217 24.7099ZM15.3455 0.782716C12.3097 0.781781 9.34187 1.67374 6.81727 3.3458C4.29267 5.01786 2.32474 7.39491 1.16235 10.1763C-3.78564e-05 12.9577 -0.304659 16.0185 0.287011 18.9716C0.87868 21.9247 2.34006 24.6375 4.48633 26.7668C6.6326 28.8961 9.36735 30.3464 12.3447 30.9341C15.3221 31.5218 18.4083 31.2207 21.2131 30.0687C24.0178 28.9167 26.4151 26.9656 28.1018 24.4623C29.7885 21.9589 30.6888 19.0157 30.6888 16.0048C30.6888 11.9685 29.0724 8.0974 26.1951 5.24284C23.3178 2.38827 19.4152 0.783969 15.3455 0.782716Z" fill="#D24A43"/>
<path d="M77.9032 11.5814C74.8251 11.5814 73.5004 13.2072 73.5004 16.9595C73.5004 20.7119 74.8775 22.4132 77.9271 22.4132C80.9767 22.4132 82.2823 20.7119 82.2823 16.9406C82.2823 13.2591 80.9052 11.5814 77.9032 11.5814ZM78.132 25.107C75.8209 25.107 73.6052 24.5351 72.2329 23.5474C70.4699 22.3234 69.5073 20.0172 69.5073 17.0824C69.5073 11.5531 72.2329 8.8877 77.8794 8.8877C83.5259 8.8877 86.2515 11.5815 86.2515 17.2005C86.2515 22.399 83.4783 25.107 78.151 25.107" fill="#D24A43"/>
<path d="M96.9674 21.9784C94.7469 21.9784 94.0226 21.8413 93.4175 21.3404C92.8123 20.8394 92.6837 20.4944 92.6122 18.9443V10.9623C92.601 10.5628 92.4328 10.1835 92.1434 9.90533C91.8541 9.62718 91.4665 9.47225 91.0636 9.47364H89.0146V18.0323C89.0146 20.7024 89.2815 21.8838 90.2011 22.9377C91.2399 24.1476 92.7837 24.6958 95.2282 24.6958H100.055V21.9784H96.9674Z" fill="#D24A43"/>
<path d="M114.06 18.4621L116.352 13.1077L118.649 18.4432L114.06 18.4621ZM118.348 9.48291H115.918C115.479 9.49121 115.051 9.61961 114.681 9.85395C114.311 10.0883 114.014 10.4195 113.822 10.8109L107.741 24.705H110.2C110.649 24.706 111.088 24.5796 111.466 24.341C111.844 24.1023 112.146 23.7613 112.335 23.3582L113.288 21.1653H119.42L120.373 23.3818C120.566 23.7787 120.867 24.1135 121.243 24.3477C121.619 24.5818 122.055 24.7057 122.499 24.705H124.986L118.348 9.48291Z" fill="#D24A43"/>
<path d="M103.858 9.47363C103.46 9.47437 103.077 9.62681 102.789 9.89945C102.5 10.1721 102.329 10.5441 102.309 10.9387V24.6957H104.311C104.711 24.6987 105.098 24.5479 105.389 24.2748C105.68 24.0018 105.854 23.6277 105.874 23.2307V9.47363H103.858Z" fill="#D24A43"/>
<path d="M50.0565 9.47363C49.6153 9.47733 49.1842 9.60492 48.8132 9.84162C48.4421 10.0783 48.1463 10.4145 47.9599 10.8111L44.1955 20.1967L40.1548 10.8205C39.9683 10.4203 39.6708 10.0811 39.2969 9.84256C38.9231 9.60402 38.4885 9.47606 38.0439 9.47363H35.5852L42.3705 24.6957H44.3242C44.756 24.6909 45.178 24.5678 45.5438 24.3402C45.9095 24.1125 46.2048 23.7891 46.397 23.4056L52.7487 9.47363H50.0565Z" fill="#D24A43"/>
<path d="M53.6729 17.2097C53.6729 18.7078 54.0207 22.739 57.704 24.2371C58.7028 24.5907 59.7607 24.7512 60.8203 24.7097H66.9052V21.9923H62.226C59.9912 21.9639 58.7666 21.5197 58.1662 20.3004C57.9161 19.7454 57.7708 19.1495 57.7374 18.5424V18.4101H66.524V15.7872H57.7374V15.6549C57.7713 15.0479 57.9166 14.4521 58.1662 13.8968C58.7666 12.687 59.9912 12.2333 62.226 12.205H66.9052V9.48757H60.8203C59.7605 9.44361 58.7022 9.6041 57.704 9.96016C54.0207 11.4535 53.6729 15.4847 53.6729 16.9829V17.2097Z" fill="#D24A43"/>
</g>
<defs>
<clipPath id="clip0">
<rect width="125" height="30.4348" fill="white" transform="translate(0 0.782715)"/>
</clipPath>
</defs>
</svg>
