<svg width="35" height="35" viewBox="0 0 35 35" fill="none" xmlns="http://www.w3.org/2000/svg">
<path d="M20.4173 7.29102H26.2506C27.8621 7.29102 29.1673 8.59622 29.1673 10.2077V29.166C29.1673 30.7775 27.8621 32.0827 26.2506 32.0827H8.75065C7.13919 32.0827 5.83398 30.7775 5.83398 29.166V10.2077C5.83398 8.59622 7.13919 7.29102 8.75065 7.29102H14.584" stroke="#2F5E97" stroke-width="1.5" stroke-linecap="round" stroke-linejoin="round"/>
<path d="M19.8202 15.545C21.1016 16.8264 21.1016 18.904 19.8202 20.1854C18.5388 21.4668 16.4612 21.4668 15.1798 20.1854C13.8984 18.904 13.8984 16.8264 15.1798 15.545C16.4612 14.2636 18.5388 14.2636 19.8202 15.545" stroke="#2F5E97" stroke-width="1.5" stroke-linecap="round" stroke-linejoin="round"/>
<path d="M22.7432 27.7077C22.488 27.0675 22.0943 26.4929 21.5882 26.0248V26.0248C20.7322 25.2314 19.6093 24.791 18.4426 24.791H16.5584C15.3918 24.791 14.2689 25.2314 13.4128 26.0248V26.0248C12.9068 26.4929 12.513 27.0675 12.2578 27.7077" stroke="#2F5E97" stroke-width="1.5" stroke-linecap="round" stroke-linejoin="round"/>
<path fill-rule="evenodd" clip-rule="evenodd" d="M18.959 10.2077H16.0423C15.2373 10.2077 14.584 9.55435 14.584 8.74935V4.37435C14.584 3.56935 15.2373 2.91602 16.0423 2.91602H18.959C19.764 2.91602 20.4173 3.56935 20.4173 4.37435V8.74935C20.4173 9.55435 19.764 10.2077 18.959 10.2077Z" stroke="#2F5E97" stroke-width="1.5" stroke-linecap="round" stroke-linejoin="round"/>
</svg>
