<svg width="30" height="35" viewBox="0 0 30 35" fill="none" xmlns="http://www.w3.org/2000/svg">
<mask id="mask0" style="mask-type:alpha" maskUnits="userSpaceOnUse" x="0" y="0" width="30" height="35">
<path d="M27.2285 34.272H2.3961C1.07277 34.272 0 33.1992 0 31.8759V3.12267C0 1.79934 1.07277 0.726562 2.3961 0.726562H18.5153L29.6246 11.8358V31.8759C29.6246 33.1992 28.5518 34.272 27.2285 34.272Z" fill="url(#paint0_linear)"/>
</mask>
<g mask="url(#mask0)">
<path d="M27.2285 34.272H2.3961C1.07277 34.272 0 33.1992 0 31.8759V3.12267C0 1.79934 1.07277 0.726562 2.3961 0.726562H18.5153L29.6246 11.8358V31.8759C29.6246 33.1992 28.5518 34.272 27.2285 34.272Z" fill="url(#paint1_linear)"/>
<path d="M6.77648 24.5626C6.6675 24.5626 6.57572 24.5253 6.50115 24.4507C6.42658 24.3761 6.38929 24.2844 6.38929 24.1754V18.9096C6.38929 18.8006 6.42658 18.7088 6.50115 18.6343C6.57572 18.554 6.6675 18.5138 6.77648 18.5138H8.73824C9.28317 18.5138 9.72772 18.6056 10.0719 18.7891C10.4161 18.9727 10.6627 19.2079 10.8118 19.4947C10.961 19.7815 11.0356 20.0912 11.0356 20.4239C11.0356 20.7566 10.961 21.0664 10.8118 21.3532C10.6627 21.64 10.4161 21.8752 10.0719 22.0587C9.72772 22.2423 9.28317 22.3341 8.73824 22.3341H7.17228V24.1754C7.17228 24.2844 7.13212 24.3761 7.05182 24.4507C6.97725 24.5253 6.88547 24.5626 6.77648 24.5626ZM8.6608 21.5941C9.24589 21.5941 9.65602 21.4823 9.8912 21.2585C10.1321 21.0348 10.2526 20.7566 10.2526 20.4239C10.2526 20.0912 10.1321 19.813 9.8912 19.5893C9.65602 19.3656 9.24589 19.2538 8.6608 19.2538H7.17228V21.5941H8.6608ZM12.5574 24.5195C12.4484 24.5195 12.3567 24.4822 12.2821 24.4077C12.2075 24.3331 12.1702 24.2413 12.1702 24.1323V18.9096C12.1702 18.8006 12.2075 18.7088 12.2821 18.6343C12.3567 18.554 12.4484 18.5138 12.5574 18.5138H14.2869C14.9408 18.5138 15.4943 18.6601 15.9475 18.9526C16.4064 19.2394 16.7505 19.6123 16.98 20.0712C17.2094 20.5301 17.3241 21.0119 17.3241 21.5167C17.3241 22.0214 17.2094 22.5033 16.98 22.9622C16.7505 23.4211 16.4064 23.7968 15.9475 24.0893C15.4943 24.3761 14.9408 24.5195 14.2869 24.5195H12.5574ZM14.1922 23.7882C14.6626 23.7882 15.0756 23.6935 15.4312 23.5042C15.7869 23.3092 16.0622 23.0425 16.2572 22.704C16.4523 22.3599 16.5498 21.9641 16.5498 21.5167C16.5498 21.0693 16.4523 20.6763 16.2572 20.3379C16.0622 19.9937 15.7869 19.727 15.4312 19.5377C15.0756 19.3427 14.6626 19.2452 14.1922 19.2452H12.9532V23.7882H14.1922ZM19.019 24.5626C18.91 24.5626 18.8182 24.5253 18.7436 24.4507C18.6691 24.3761 18.6318 24.2844 18.6318 24.1754V18.9096C18.6318 18.8006 18.6691 18.7088 18.7436 18.6343C18.8182 18.554 18.91 18.5138 19.019 18.5138H22.366C22.4692 18.5138 22.5553 18.5511 22.6241 18.6257C22.6987 18.6945 22.736 18.7805 22.736 18.8838C22.736 18.987 22.6987 19.0731 22.6241 19.1419C22.5553 19.2107 22.4692 19.2452 22.366 19.2452H19.4148V21.1467H22.0649C22.1681 21.1467 22.2541 21.184 22.323 21.2585C22.3975 21.3274 22.4348 21.4134 22.4348 21.5167C22.4348 21.6199 22.3975 21.706 22.323 21.7748C22.2541 21.8436 22.1681 21.878 22.0649 21.878H19.4148V24.1754C19.4148 24.2844 19.3746 24.3761 19.2943 24.4507C19.2197 24.5253 19.128 24.5626 19.019 24.5626Z" fill="white"/>
<path d="M6.50115 24.4507L6.65518 24.2967L6.50115 24.4507ZM6.50115 18.6343L6.65528 18.7884L6.66077 18.7825L6.50115 18.6343ZM10.0719 18.7891L10.1744 18.5969L10.0719 18.7891ZM10.8118 19.4947L10.6186 19.5952V19.5952L10.8118 19.4947ZM10.8118 21.3532L10.6186 21.2527L10.6186 21.2527L10.8118 21.3532ZM10.0719 22.0587L10.1744 22.2509L10.0719 22.0587ZM7.17228 22.3341V22.1162H6.95445V22.3341H7.17228ZM7.05182 24.4507L6.90349 24.291L6.89779 24.2967L7.05182 24.4507ZM9.8912 21.2585L9.74297 21.0989L9.74107 21.1007L9.8912 21.2585ZM9.8912 19.5893L9.74106 19.7472L9.74298 19.749L9.8912 19.5893ZM7.17228 19.2538V19.0359H6.95445V19.2538H7.17228ZM7.17228 21.5941H6.95445V21.8119H7.17228V21.5941ZM6.77648 24.3447C6.72311 24.3447 6.68739 24.3289 6.65518 24.2967L6.34712 24.6047C6.46404 24.7216 6.61189 24.7804 6.77648 24.7804V24.3447ZM6.65518 24.2967C6.62296 24.2645 6.60712 24.2287 6.60712 24.1754H6.17147C6.17147 24.34 6.2302 24.4878 6.34712 24.6047L6.65518 24.2967ZM6.60712 24.1754V18.9096H6.17147V24.1754H6.60712ZM6.60712 18.9096C6.60712 18.8562 6.62296 18.8205 6.65518 18.7883L6.34712 18.4802C6.2302 18.5972 6.17147 18.745 6.17147 18.9096H6.60712ZM6.66077 18.7825C6.69438 18.7463 6.72845 18.7316 6.77648 18.7316V18.296C6.60655 18.296 6.45705 18.3616 6.34153 18.486L6.66077 18.7825ZM6.77648 18.7316H8.73824V18.296H6.77648V18.7316ZM8.73824 18.7316C9.26083 18.7316 9.66679 18.82 9.96938 18.9813L10.1744 18.5969C9.78865 18.3912 9.30551 18.296 8.73824 18.296V18.7316ZM9.96938 18.9813C10.2829 19.1485 10.4936 19.3549 10.6186 19.5952L11.0051 19.3942C10.8318 19.0609 10.5492 18.7969 10.1744 18.5969L9.96938 18.9813ZM10.6186 19.5952C10.7511 19.85 10.8177 20.1252 10.8177 20.4239H11.2534C11.2534 20.0573 11.1709 19.713 11.0051 19.3942L10.6186 19.5952ZM10.8177 20.4239C10.8177 20.7227 10.7511 20.9979 10.6186 21.2527L11.0051 21.4537C11.1709 21.1349 11.2534 20.7906 11.2534 20.4239H10.8177ZM10.6186 21.2527C10.4936 21.493 10.2829 21.6993 9.96938 21.8665L10.1744 22.2509C10.5492 22.051 10.8318 21.787 11.0051 21.4537L10.6186 21.2527ZM9.96938 21.8665C9.66679 22.0279 9.26083 22.1162 8.73824 22.1162V22.5519C9.30551 22.5519 9.78865 22.4567 10.1744 22.2509L9.96938 21.8665ZM8.73824 22.1162H7.17228V22.5519H8.73824V22.1162ZM6.95445 22.3341V24.1754H7.3901V22.3341H6.95445ZM6.95445 24.1754C6.95445 24.2234 6.93979 24.2575 6.9036 24.2911L7.20004 24.6103C7.32445 24.4948 7.3901 24.3453 7.3901 24.1754H6.95445ZM6.89779 24.2967C6.86557 24.3289 6.82986 24.3447 6.77648 24.3447V24.7804C6.94108 24.7804 7.08892 24.7216 7.20584 24.6047L6.89779 24.2967ZM8.6608 21.8119C9.26113 21.8119 9.74357 21.6996 10.0413 21.4164L9.74107 21.1007C9.56847 21.2649 9.23064 21.3763 8.6608 21.3763V21.8119ZM10.0394 21.4182C10.3253 21.1527 10.4704 20.8164 10.4704 20.4239H10.0347C10.0347 20.6969 9.93891 20.917 9.74298 21.0989L10.0394 21.4182ZM10.4704 20.4239C10.4704 20.0315 10.3253 19.6952 10.0394 19.4297L9.74298 19.749C9.93891 19.9309 10.0347 20.151 10.0347 20.4239H10.4704ZM10.0413 19.4315C9.74357 19.1483 9.26113 19.0359 8.6608 19.0359V19.4716C9.23064 19.4716 9.56847 19.583 9.74107 19.7472L10.0413 19.4315ZM8.6608 19.0359H7.17228V19.4716H8.6608V19.0359ZM6.95445 19.2538V21.5941H7.3901V19.2538H6.95445ZM7.17228 21.8119H8.6608V21.3763H7.17228V21.8119ZM12.2821 24.4077L12.4361 24.2536H12.4361L12.2821 24.4077ZM12.2821 18.6343L12.4362 18.7884L12.4417 18.7825L12.2821 18.6343ZM15.9475 18.9526L15.8293 19.1356L15.832 19.1373L15.9475 18.9526ZM16.98 20.0712L16.7851 20.1686L16.98 20.0712ZM16.98 22.9622L16.7851 22.8648L16.98 22.9622ZM15.9475 24.0893L16.064 24.2734L16.0646 24.273L15.9475 24.0893ZM15.4312 23.5042L15.5336 23.6965L15.536 23.6952L15.4312 23.5042ZM16.2572 22.704L16.446 22.8128L16.4467 22.8114L16.2572 22.704ZM16.2572 20.3379L16.0677 20.4453L16.0685 20.4467L16.2572 20.3379ZM15.4312 19.5377L15.3265 19.7287L15.3289 19.73L15.4312 19.5377ZM12.9532 19.2452V19.0273H12.7354V19.2452H12.9532ZM12.9532 23.7882H12.7354V24.006H12.9532V23.7882ZM12.5574 24.3017C12.504 24.3017 12.4683 24.2859 12.4361 24.2536L12.1281 24.5617C12.245 24.6786 12.3928 24.7374 12.5574 24.7374V24.3017ZM12.4361 24.2536C12.4039 24.2214 12.3881 24.1857 12.3881 24.1323H11.9524C11.9524 24.2969 12.0111 24.4448 12.1281 24.5617L12.4361 24.2536ZM12.3881 24.1323V18.9096H11.9524V24.1323H12.3881ZM12.3881 18.9096C12.3881 18.8562 12.4039 18.8205 12.4361 18.7883L12.1281 18.4802C12.0111 18.5972 11.9524 18.745 11.9524 18.9096H12.3881ZM12.4417 18.7825C12.4753 18.7463 12.5094 18.7316 12.5574 18.7316V18.296C12.3875 18.296 12.238 18.3616 12.1225 18.486L12.4417 18.7825ZM12.5574 18.7316H14.2869V18.296H12.5574V18.7316ZM14.2869 18.7316C14.9078 18.7316 15.4182 18.8702 15.8293 19.1356L16.0656 18.7696C15.5704 18.4499 14.9737 18.296 14.2869 18.296V18.7316ZM15.832 19.1373C16.2589 19.4041 16.5746 19.7475 16.7851 20.1686L17.1748 19.9737C16.9264 19.477 16.5539 19.0747 16.0629 18.7679L15.832 19.1373ZM16.7851 20.1686C16.9997 20.5977 17.1063 21.0463 17.1063 21.5167H17.542C17.542 20.9775 17.4191 20.4624 17.1748 19.9737L16.7851 20.1686ZM17.1063 21.5167C17.1063 21.9871 16.9997 22.4356 16.7851 22.8648L17.1748 23.0596C17.4191 22.571 17.542 22.0558 17.542 21.5167H17.1063ZM16.7851 22.8648C16.5744 23.2862 16.2581 23.633 15.8304 23.9056L16.0646 24.273C16.5546 23.9606 16.9267 23.5559 17.1748 23.0596L16.7851 22.8648ZM15.831 23.9053C15.4196 24.1656 14.9086 24.3017 14.2869 24.3017V24.7374C14.9729 24.7374 15.569 24.5866 16.064 24.2734L15.831 23.9053ZM14.2869 24.3017H12.5574V24.7374H14.2869V24.3017ZM14.1922 24.006C14.6923 24.006 15.1415 23.9052 15.5336 23.6965L15.3289 23.312C15.0096 23.4819 14.6329 23.5703 14.1922 23.5703V24.006ZM15.536 23.6952C15.9252 23.4818 16.2302 23.1872 16.446 22.8128L16.0685 22.5953C15.8942 22.8978 15.6485 23.1366 15.3265 23.3132L15.536 23.6952ZM16.4467 22.8114C16.6627 22.4304 16.7676 21.9967 16.7676 21.5167H16.3319C16.3319 21.9315 16.2419 22.2893 16.0677 22.5967L16.4467 22.8114ZM16.7676 21.5167C16.7676 21.0367 16.6627 20.6052 16.446 20.2291L16.0685 20.4467C16.2418 20.7474 16.3319 21.1018 16.3319 21.5167H16.7676ZM16.4467 20.2305C16.2309 19.8496 15.925 19.5538 15.5336 19.3454L15.3289 19.73C15.6487 19.9002 15.8935 20.1378 16.0677 20.4453L16.4467 20.2305ZM15.536 19.3467C15.1434 19.1314 14.6933 19.0273 14.1922 19.0273V19.463C14.6319 19.463 15.0077 19.5539 15.3265 19.7287L15.536 19.3467ZM14.1922 19.0273H12.9532V19.463H14.1922V19.0273ZM12.7354 19.2452V23.7882H13.171V19.2452H12.7354ZM12.9532 24.006H14.1922V23.5703H12.9532V24.006ZM18.7436 24.4507L18.8977 24.2967L18.7436 24.4507ZM18.7436 18.6343L18.8978 18.7884L18.9033 18.7825L18.7436 18.6343ZM22.6241 18.6257L22.4641 18.7734L22.47 18.7798L22.4764 18.7857L22.6241 18.6257ZM22.6241 19.1419L22.4763 18.9817L22.4701 18.9879L22.6241 19.1419ZM19.4148 19.2452V19.0273H19.1969V19.2452H19.4148ZM19.4148 21.1467H19.1969V21.3645H19.4148V21.1467ZM22.323 21.2585L22.1629 21.4063L22.1688 21.4127L22.1752 21.4186L22.323 21.2585ZM22.323 21.7748L22.1751 21.6146L22.169 21.6208L22.323 21.7748ZM19.4148 21.878V21.6602H19.1969V21.878H19.4148ZM19.2943 24.4507L19.146 24.291L19.1403 24.2967L19.2943 24.4507ZM19.019 24.3447C18.9656 24.3447 18.9299 24.3289 18.8977 24.2967L18.5896 24.6047C18.7065 24.7216 18.8544 24.7804 19.019 24.7804V24.3447ZM18.8977 24.2967C18.8654 24.2645 18.8496 24.2287 18.8496 24.1754H18.414C18.414 24.34 18.4727 24.4878 18.5896 24.6047L18.8977 24.2967ZM18.8496 24.1754V18.9096H18.414V24.1754H18.8496ZM18.8496 18.9096C18.8496 18.8562 18.8654 18.8205 18.8977 18.7883L18.5896 18.4802C18.4727 18.5972 18.414 18.745 18.414 18.9096H18.8496ZM18.9033 18.7825C18.9369 18.7463 18.9709 18.7316 19.019 18.7316V18.296C18.849 18.296 18.6995 18.3616 18.584 18.486L18.9033 18.7825ZM19.019 18.7316H22.366V18.296H19.019V18.7316ZM22.366 18.7316C22.4097 18.7316 22.4373 18.7444 22.4641 18.7734L22.7842 18.4779C22.6733 18.3578 22.5288 18.296 22.366 18.296V18.7316ZM22.4764 18.7857C22.5054 18.8125 22.5182 18.8401 22.5182 18.8838H22.9538C22.9538 18.7209 22.892 18.5765 22.7719 18.4656L22.4764 18.7857ZM22.5182 18.8838C22.5182 18.9274 22.5054 18.9551 22.4764 18.9819L22.7719 19.302C22.892 19.1911 22.9538 19.0466 22.9538 18.8838H22.5182ZM22.4701 18.9879C22.4448 19.0132 22.4154 19.0273 22.366 19.0273V19.463C22.5231 19.463 22.6658 19.4083 22.7782 19.2959L22.4701 18.9879ZM22.366 19.0273H19.4148V19.463H22.366V19.0273ZM19.1969 19.2452V21.1467H19.6326V19.2452H19.1969ZM19.4148 21.3645H22.0649V20.9289H19.4148V21.3645ZM22.0649 21.3645C22.1085 21.3645 22.1361 21.3773 22.1629 21.4063L22.483 21.1108C22.3722 20.9907 22.2277 20.9289 22.0649 20.9289V21.3645ZM22.1752 21.4186C22.2043 21.4454 22.217 21.473 22.217 21.5167H22.6527C22.6527 21.3538 22.5908 21.2094 22.4707 21.0985L22.1752 21.4186ZM22.217 21.5167C22.217 21.5603 22.2043 21.5879 22.1752 21.6147L22.4707 21.9349C22.5908 21.824 22.6527 21.6795 22.6527 21.5167H22.217ZM22.169 21.6208C22.1436 21.6461 22.1142 21.6602 22.0649 21.6602V22.0959C22.222 22.0959 22.3647 22.0412 22.477 21.9288L22.169 21.6208ZM22.0649 21.6602H19.4148V22.0959H22.0649V21.6602ZM19.1969 21.878V24.1754H19.6326V21.878H19.1969ZM19.1969 24.1754C19.1969 24.2234 19.1823 24.2575 19.1461 24.2911L19.4425 24.6103C19.5669 24.4948 19.6326 24.3453 19.6326 24.1754H19.1969ZM19.1403 24.2967C19.1081 24.3289 19.0723 24.3447 19.019 24.3447V24.7804C19.1836 24.7804 19.3314 24.7216 19.4483 24.6047L19.1403 24.2967Z" fill="white"/>
<g filter="url(#filter0_d)">
<path d="M29.6248 11.8358H20.9117C19.5884 11.8358 18.5156 10.763 18.5156 9.43967V0.726562L29.6248 11.8358Z" fill="url(#paint2_linear)"/>
</g>
</g>
<defs>
<filter id="filter0_d" x="16.0106" y="-1.88737" width="16.5549" height="16.5549" filterUnits="userSpaceOnUse" color-interpolation-filters="sRGB">
<feFlood flood-opacity="0" result="BackgroundImageFix"/>
<feColorMatrix in="SourceAlpha" type="matrix" values="0 0 0 0 0 0 0 0 0 0 0 0 0 0 0 0 0 0 127 0" result="hardAlpha"/>
<feOffset dx="0.217828" dy="0.108914"/>
<feGaussianBlur stdDeviation="1.36142"/>
<feColorMatrix type="matrix" values="0 0 0 0 0 0 0 0 0 0 0 0 0 0 0 0 0 0 0.33 0"/>
<feBlend mode="normal" in2="BackgroundImageFix" result="effect1_dropShadow"/>
<feBlend mode="normal" in="SourceGraphic" in2="effect1_dropShadow" result="shape"/>
</filter>
<linearGradient id="paint0_linear" x1="14.8123" y1="0.726562" x2="14.8123" y2="34.272" gradientUnits="userSpaceOnUse">
<stop stop-color="#FF7979"/>
<stop offset="1" stop-color="#E85555"/>
</linearGradient>
<linearGradient id="paint1_linear" x1="14.8123" y1="0.726562" x2="14.8123" y2="34.272" gradientUnits="userSpaceOnUse">
<stop stop-color="#FF7981"/>
<stop offset="1" stop-color="#E85567"/>
</linearGradient>
<linearGradient id="paint2_linear" x1="24.0702" y1="0.726562" x2="24.0702" y2="11.8358" gradientUnits="userSpaceOnUse">
<stop stop-color="#D03954"/>
<stop offset="1" stop-color="#C02A3C"/>
</linearGradient>
</defs>
</svg>
