<svg width="24" height="24" viewBox="0 0 24 24" fill="none" xmlns="http://www.w3.org/2000/svg">
    <path d="M5.25781 18.9607L9.47227 14.7207" stroke="#6B89B5" stroke-width="1.5" stroke-linecap="round" stroke-linejoin="round"/>
    <path fill-rule="evenodd" clip-rule="evenodd" d="M17.3816 9.41342L19.4411 9.52342C19.7224 9.53842 19.9977 9.43242 20.1965 9.23242L20.6309 8.79542C21.0195 8.40442 21.0195 7.77142 20.6309 7.38142L16.7673 3.49442C16.3787 3.10342 15.7495 3.10342 15.3618 3.49442L15.0378 3.81942C14.8509 4.00742 14.7466 4.26142 14.7466 4.52642V6.76242L12.1115 9.41342H8.57198C8.30857 9.41342 8.05511 9.51842 7.86923 9.70642L6.88719 10.6944C6.49854 11.0854 6.49854 11.7184 6.88719 12.1084L9.47749 14.7144L12.0678 17.3204C12.4564 17.7114 13.0856 17.7114 13.4733 17.3204L14.4553 16.3324C14.6422 16.1444 14.7466 15.8904 14.7466 15.6254V12.0634L17.3816 9.41342Z" stroke="#6B89B5" stroke-width="1.5" stroke-linecap="round" stroke-linejoin="round"/>
    <path d="M17.385 9.40977L14.751 6.75977" stroke="#6B89B5" stroke-width="1.5" stroke-linecap="round" stroke-linejoin="round"/>
    <path d="M7.49438 21.2109L3.02148 16.7109" stroke="#6B89B5" stroke-width="1.5" stroke-linecap="round" stroke-linejoin="round"/>
</svg>
