<svg width="16" height="16" viewBox="0 0 16 16" fill="none" xmlns="http://www.w3.org/2000/svg">
<path d="M11 2H5C4.44772 2 4 2.44772 4 3V5H3V3C3 1.89543 3.89543 1 5 1H11C12.1046 1 13 1.89543 13 3V5H12V3C12 2.44772 11.5523 2 11 2Z" fill="black"/>
<path d="M14 6H2C1.44772 6 1 6.44772 1 7V10C1 10.5523 1.44772 11 2 11H3V12H2C0.895431 12 0 11.1046 0 10V7C0 5.89543 0.895431 5 2 5H14C15.1046 5 16 5.89543 16 7V10C16 11.1046 15.1046 12 14 12H13V11H14C14.5523 11 15 10.5523 15 10V7C15 6.44772 14.5523 6 14 6Z" fill="black"/>
<path fill-rule="evenodd" clip-rule="evenodd" d="M11 9H5C4.44772 9 4 9.44772 4 10V13C4 13.5523 4.44772 14 5 14H11C11.5523 14 12 13.5523 12 13V10C12 9.44772 11.5523 9 11 9ZM5 8C3.89543 8 3 8.89543 3 10V13C3 14.1046 3.89543 15 5 15H11C12.1046 15 13 14.1046 13 13V10C13 8.89543 12.1046 8 11 8H5Z" fill="black"/>
<path d="M3 7.5C3 7.77614 2.77614 8 2.5 8C2.22386 8 2 7.77614 2 7.5C2 7.22386 2.22386 7 2.5 7C2.77614 7 3 7.22386 3 7.5Z" fill="black"/>
</svg>
