<svg width="20" height="16" viewBox="0 0 20 16" fill="none" xmlns="http://www.w3.org/2000/svg">
<path d="M12.1213 5.87975C13.2923 7.05075 13.2923 8.95175 12.1213 10.1248C10.9503 11.2958 9.0493 11.2958 7.8763 10.1248C6.7053 8.95375 6.7053 7.05275 7.8763 5.87975C9.0493 4.70675 10.9493 4.70675 12.1213 5.87975" stroke="#3B5999" stroke-width="1.5" stroke-linecap="round" stroke-linejoin="round"/>
<path fill-rule="evenodd" clip-rule="evenodd" d="M1 8C1 7.341 1.152 6.689 1.446 6.088V6.088C2.961 2.991 6.309 1 10 1C13.691 1 17.039 2.991 18.554 6.088V6.088C18.848 6.689 19 7.341 19 8C19 8.659 18.848 9.311 18.554 9.912V9.912C17.039 13.009 13.691 15 10 15C6.309 15 2.961 13.009 1.446 9.912V9.912C1.152 9.311 1 8.659 1 8Z" stroke="#3B5999" stroke-width="1.5" stroke-linecap="round" stroke-linejoin="round"/>
</svg>
