<svg width="35" height="35" viewBox="0 0 35 35" fill="none" xmlns="http://www.w3.org/2000/svg">
<path d="M14.7157 11.8986C15.9971 13.18 15.9971 15.2575 14.7157 16.5389C13.4343 17.8204 11.3567 17.8204 10.0753 16.5389C8.79391 15.2575 8.79391 13.18 10.0753 11.8986C11.3567 10.6171 13.4343 10.6171 14.7157 11.8986" stroke="#2F5E97" stroke-width="1.5" stroke-linecap="round" stroke-linejoin="round"/>
<path fill-rule="evenodd" clip-rule="evenodd" d="M2.9165 26.9785V8.07997C2.9165 6.43643 4.24942 5.10352 5.89296 5.10352H29.1665C30.778 5.10352 32.0832 6.40872 32.0832 8.02018V26.9785C32.0832 28.59 30.778 29.8952 29.1665 29.8952H5.83317C4.22171 29.8952 2.9165 28.59 2.9165 26.9785Z" stroke="#2F5E97" stroke-width="1.5" stroke-linecap="round" stroke-linejoin="round"/>
<path d="M21.875 13.8542H27.7083" stroke="#2F5E97" stroke-width="1.5" stroke-linecap="round" stroke-linejoin="round"/>
<path d="M25.375 19.6862H21.875" stroke="#2F5E97" stroke-width="1.5" stroke-linecap="round" stroke-linejoin="round"/>
<path d="M17.6387 24.0612C17.3835 23.421 16.9898 22.8464 16.4837 22.3783V22.3783C15.6277 21.5849 14.5048 21.1445 13.3381 21.1445H11.4539C10.2873 21.1445 9.16436 21.5849 8.30832 22.3783V22.3783C7.80228 22.8464 7.40853 23.421 7.15332 24.0612" stroke="#2F5E97" stroke-width="1.5" stroke-linecap="round" stroke-linejoin="round"/>
</svg>
