<svg width="40" height="40" viewBox="0 0 40 40" fill="none" xmlns="http://www.w3.org/2000/svg">
<path fill-rule="evenodd" clip-rule="evenodd" d="M22.4997 22.8325L11.1663 34.1658C9.66634 35.6658 7.33301 35.6658 5.83301 34.1658C4.33301 32.6658 4.33301 30.3325 5.83301 28.8325L17.1663 17.4991C15.833 14.1658 16.6663 10.3325 19.333 7.6658C22.1663 4.83246 26.333 4.33246 29.6663 5.6658C29.833 5.6658 29.833 5.83246 29.6663 5.99913L23.6663 11.9991L27.9997 16.3325L34.1663 10.3325C34.1663 10.3325 34.333 10.3325 34.4997 10.3325C36.1663 13.6658 35.333 17.8325 32.4997 20.6658C29.6663 23.3325 25.833 23.9991 22.4997 22.8325Z" stroke="#2F5E97" stroke-width="1.5" stroke-linecap="round" stroke-linejoin="round"/>
</svg>
