<svg width="20" height="20" viewBox="0 0 20 20" fill="none" xmlns="http://www.w3.org/2000/svg">
    <path d="M17.5002 10H14.516C13.8627 10 13.3335 10.5292 13.3335 11.1825V12.1508C13.3335 12.8042 13.8627 13.3333 14.516 13.3333H17.5002" stroke="#718096" stroke-width="1.5" stroke-linecap="round" stroke-linejoin="round"/>
    <path fill-rule="evenodd" clip-rule="evenodd" d="M15.8333 17.5002H4.16667C3.24583 17.5002 2.5 16.7543 2.5 15.8335V7.50016C2.5 6.57933 3.24583 5.8335 4.16667 5.8335H15.8333C16.7542 5.8335 17.5 6.57933 17.5 7.50016V15.8335C17.5 16.7543 16.7542 17.5002 15.8333 17.5002Z" stroke="#718096" stroke-width="1.5" stroke-linecap="round" stroke-linejoin="round"/>
    <path d="M11.6667 5.83327L8.9225 3.0891C8.59667 2.76327 8.06917 2.76327 7.74417 3.0891L5 5.83327" stroke="#718096" stroke-width="1.5" stroke-linecap="round" stroke-linejoin="round"/>
    <path d="M10 4.1666L11.0775 3.0891C11.4033 2.76327 11.9308 2.76327 12.2558 3.0891L15 5.83327" stroke="#718096" stroke-width="1.5" stroke-linecap="round" stroke-linejoin="round"/>
</svg>
