<svg width="20" height="20" viewBox="0 0 20 20" fill="none" xmlns="http://www.w3.org/2000/svg">
    <path d="M12.5006 5.83139H7.49854" stroke="#718096" stroke-width="1.5" stroke-linecap="round" stroke-linejoin="round"/>
    <path d="M4.16406 11.6671V4.16394C4.16406 3.24309 4.91057 2.49658 5.83142 2.49658H14.1682C15.0891 2.49658 15.8356 3.24309 15.8356 4.16394V11.6671" stroke="#718096" stroke-width="1.5" stroke-linecap="round" stroke-linejoin="round"/>
    <path fill-rule="evenodd" clip-rule="evenodd" d="M2.49658 15.8354V12.9175C2.49658 12.2269 3.05646 11.667 3.7471 11.667H5.31359C5.64502 11.6671 5.96286 11.7987 6.19729 12.033L7.01096 12.8466C7.32351 13.1589 7.74719 13.3343 8.18895 13.3344H11.8096C12.2521 13.3345 12.6765 13.1587 12.9893 12.8458L13.6804 12.1547C13.993 11.8425 14.4166 11.6671 14.8584 11.667H16.2523C16.943 11.667 17.5028 12.2269 17.5028 12.9175V15.8354C17.5028 16.7563 16.7563 17.5028 15.8355 17.5028H4.16394C3.24309 17.5028 2.49658 16.7563 2.49658 15.8354Z" stroke="#718096" stroke-width="1.5" stroke-linecap="round" stroke-linejoin="round"/>
</svg>
