<svg width="24" height="24" viewBox="0 0 24 24" fill="none" xmlns="http://www.w3.org/2000/svg">
    <path d="M24 0H0V24H24V0Z" fill="#7D3DAF"/>
    <path d="M19.5905 7.73626L19.5857 7.7173C19.2023 6.16744 17.4739 4.50436 15.8867 4.15836L15.8688 4.15468C13.3015 3.66491 10.6984 3.66491 8.13159 4.15468L8.11315 4.15836C6.52643 4.50436 4.79804 6.16744 4.41413 7.7173L4.40992 7.73626C3.93595 9.9007 3.93595 12.0957 4.40992 14.2601L4.41413 14.2791C4.78166 15.7628 6.38134 17.3495 7.90935 17.7858V19.5159C7.90935 20.1421 8.67243 20.4496 9.10637 19.9978L10.8592 18.1757C11.2394 18.197 11.6198 18.2088 12.0002 18.2088C13.2925 18.2088 14.5854 18.0866 15.8688 17.8418L15.8867 17.8381C17.4739 17.4921 19.2023 15.829 19.5857 14.2791L19.5905 14.2602C20.0644 12.0957 20.0644 9.9007 19.5905 7.73626ZM18.2033 13.9462C17.9474 14.9574 16.635 16.2144 15.5923 16.4467C14.2272 16.7062 12.8514 16.8172 11.4769 16.7791C11.4495 16.7784 11.4233 16.789 11.4042 16.8086C11.2091 17.0088 10.1243 18.1224 10.1243 18.1224L8.76301 19.5195C8.66348 19.6233 8.48864 19.5527 8.48864 19.4095V16.5435C8.48864 16.4961 8.45483 16.4559 8.40833 16.4468C8.40806 16.4467 8.4078 16.4467 8.40754 16.4466C7.36482 16.2144 6.05299 14.9573 5.79652 13.9462C5.36996 11.9898 5.36996 10.0065 5.79652 8.05008C6.05299 7.03896 7.36482 5.7819 8.40754 5.54966C10.7916 5.09623 13.2088 5.09623 15.5923 5.54966C16.6355 5.7819 17.9474 7.03896 18.2033 8.05008C18.6304 10.0065 18.6304 11.9898 18.2033 13.9462Z" fill="white"/>
    <path d="M14.2685 15.2694C14.1082 15.2208 13.9554 15.1881 13.8136 15.1292C12.3434 14.5192 10.9904 13.7324 9.91868 12.5261C9.30922 11.8402 8.8322 11.0658 8.42896 10.2462C8.23774 9.85759 8.07659 9.45372 7.91234 9.05248C7.76257 8.68658 7.98317 8.30857 8.21547 8.03288C8.43344 7.77415 8.71392 7.57613 9.01768 7.43021C9.25476 7.3163 9.48864 7.38197 9.6618 7.58293C10.0361 8.01739 10.38 8.47409 10.6584 8.9777C10.8296 9.28746 10.7826 9.66611 10.4723 9.87692C10.3969 9.92816 10.3282 9.9883 10.2579 10.0462C10.1963 10.0969 10.1383 10.1481 10.0961 10.2168C10.0189 10.3425 10.0152 10.4906 10.0649 10.6273C10.4476 11.6788 11.0925 12.4965 12.151 12.9369C12.3203 13.0074 12.4904 13.0894 12.6855 13.0667C13.0123 13.0285 13.1181 12.6701 13.3471 12.4828C13.5709 12.2998 13.8569 12.2974 14.098 12.45C14.3391 12.6026 14.5729 12.7664 14.8053 12.932C15.0333 13.0945 15.2604 13.2535 15.4708 13.4388C15.6731 13.6169 15.7428 13.8506 15.6289 14.0924C15.4203 14.5352 15.1169 14.9036 14.6791 15.1387C14.5555 15.205 14.4079 15.2265 14.2685 15.2694C14.1082 15.2207 14.4079 15.2265 14.2685 15.2694Z" fill="white"/>
    <path d="M12.0044 6.92365C13.9274 6.97753 15.5068 8.2537 15.8452 10.1548C15.9029 10.4788 15.9234 10.81 15.9491 11.1387C15.9599 11.277 15.8816 11.4084 15.7323 11.4102C15.5782 11.412 15.5088 11.2831 15.4988 11.1448C15.479 10.8712 15.4653 10.5964 15.4276 10.325C15.2285 8.8925 14.0863 7.70738 12.6604 7.45307C12.4459 7.41478 12.2263 7.40473 12.0089 7.38192C11.8715 7.36749 11.6916 7.35917 11.6611 7.18839C11.6356 7.0452 11.7565 6.93118 11.8928 6.92386C11.9299 6.92181 11.9672 6.92349 12.0044 6.92365C13.9274 6.97753 11.9672 6.92349 12.0044 6.92365Z" fill="white"/>
    <path d="M14.9266 10.7121C14.9234 10.7361 14.9217 10.7926 14.9077 10.8457C14.8566 11.0388 14.5639 11.063 14.4965 10.8681C14.4766 10.8103 14.4736 10.7445 14.4735 10.6823C14.4728 10.275 14.3843 9.86811 14.1789 9.51375C13.9677 9.14953 13.6452 8.84335 13.2669 8.65808C13.0381 8.54607 12.7907 8.47645 12.54 8.43495C12.4304 8.41683 12.3196 8.40583 12.2095 8.3905C12.0761 8.37196 12.0048 8.28691 12.0111 8.15541C12.017 8.03218 12.1071 7.94355 12.2414 7.95114C12.6827 7.9762 13.1089 8.07158 13.5013 8.27933C14.2991 8.70184 14.7548 9.36877 14.8879 10.2593C14.8939 10.2996 14.9036 10.3396 14.9066 10.3801C14.9141 10.4801 14.9189 10.5802 14.9266 10.7121C14.9234 10.7361 14.9189 10.5802 14.9266 10.7121Z" fill="white"/>
    <path d="M13.7306 10.6655C13.5697 10.6684 13.4836 10.5794 13.467 10.4319C13.4555 10.329 13.4464 10.2248 13.4219 10.1247C13.3735 9.92767 13.2688 9.74504 13.103 9.62428C13.0247 9.56725 12.9361 9.52569 12.8432 9.49889C12.7251 9.46482 12.6026 9.47419 12.4848 9.44533C12.357 9.414 12.2862 9.31046 12.3064 9.1905C12.3246 9.08133 12.4309 8.99612 12.5501 9.00475C13.2957 9.05857 13.8285 9.44401 13.9046 10.3217C13.9099 10.3836 13.9163 10.4491 13.9025 10.5083C13.879 10.6098 13.8039 10.6606 13.7306 10.6655C13.5697 10.6684 13.8039 10.6606 13.7306 10.6655Z" fill="white"/>
</svg>
