<svg width="24" height="25" viewBox="0 0 24 25" fill="none" xmlns="http://www.w3.org/2000/svg">
<path fill-rule="evenodd" clip-rule="evenodd" d="M7.414 20.914L3.586 17.086C3.211 16.711 3 16.202 3 15.672V9.328C3 8.798 3.211 8.289 3.586 7.914L7.414 4.086C7.789 3.711 8.298 3.5 8.828 3.5H15.171C15.701 3.5 16.21 3.711 16.585 4.086L20.413 7.914C20.789 8.289 21 8.798 21 9.328V15.671C21 16.201 20.789 16.71 20.414 17.085L16 21.5H8.828C8.298 21.5 7.789 21.289 7.414 20.914V20.914Z" stroke="#D24A43" stroke-width="1.5" stroke-linecap="round" stroke-linejoin="round"/>
<path d="M9 15.5L15 9.5" stroke="#D24A43" stroke-width="1.5" stroke-linecap="round" stroke-linejoin="round"/>
<path d="M15 15.5L9 9.5" stroke="#D24A43" stroke-width="1.5" stroke-linecap="round" stroke-linejoin="round"/>
</svg>
