<svg width="14" height="14" viewBox="0 0 14 14" fill="none" xmlns="http://www.w3.org/2000/svg">
<path d="M7.99381 6.99157L13.7934 1.17873C13.917 1.04586 13.9843 0.870122 13.9811 0.68854C13.9779 0.506958 13.9044 0.333708 13.7762 0.20529C13.648 0.0768723 13.475 0.003313 13.2937 0.000109199C13.1124 -0.00309461 12.9369 0.0643072 12.8042 0.188115L7 5.98694L1.19577 0.188115C1.0631 0.0643072 0.887626 -0.00309461 0.706313 0.000109199C0.525 0.003313 0.352006 0.0768723 0.223779 0.20529C0.095551 0.333708 0.0221006 0.506958 0.0189016 0.68854C0.0157025 0.870122 0.0830044 1.04586 0.206629 1.17873L6.01552 6.99157L0.206629 12.8044C0.141173 12.8692 0.0892034 12.9463 0.0537338 13.0313C0.0182641 13.1163 0 13.2076 0 13.2997C0 13.3919 0.0182641 13.4831 0.0537338 13.5681C0.0892034 13.6531 0.141173 13.7303 0.206629 13.795C0.337854 13.9263 0.515736 14 0.701201 14C0.886667 14 1.06455 13.9263 1.19577 13.795L7 7.96816L12.8042 13.795C12.9355 13.9263 13.1133 14 13.2988 14C13.4843 14 13.6621 13.9263 13.7934 13.795C13.8588 13.7303 13.9108 13.6531 13.9463 13.5681C13.9817 13.4831 14 13.3919 14 13.2997C14 13.2076 13.9817 13.1163 13.9463 13.0313C13.9108 12.9463 13.8588 12.8692 13.7934 12.8044L7.99381 6.99157Z" fill="#D24A43"/>
</svg>
