<svg width="91" height="75" viewBox="0 0 91 75" fill="none" xmlns="http://www.w3.org/2000/svg">
    <path opacity="0.8" fill-rule="evenodd" clip-rule="evenodd" d="M49.8564 22.2874C49.8564 29.9788 52.5993 35.9221 58.0852 40.1174L45.5001 74.9907H66.0718L85.4335 40.1174C89.1445 33.4748 91 27.5315 91 22.2874C91 15.2952 89.0235 9.83264 85.0705 5.89954C81.1175 1.96643 76.2368 -9.15527e-05 70.4282 -9.15527e-05C64.4583 -9.15527e-05 59.5373 2.09753 55.6649 6.29285C51.7926 10.4882 49.8564 15.8196 49.8564 22.2874ZM4.35712 22.2874C4.35712 29.9788 7.09999 35.9221 12.5858 40.1174L0.000732422 74.9907H20.5725L39.9342 40.1174C43.6452 33.4748 45.5007 27.5315 45.5007 22.2874C45.5007 15.2952 43.5242 9.83264 39.5712 5.89954C35.6181 1.96643 30.7374 -9.15527e-05 24.9289 -9.15527e-05C18.959 -9.15527e-05 14.038 2.09753 10.1656 6.29285C6.29326 10.4882 4.35712 15.8196 4.35712 22.2874Z" fill="#7ABCCE"/>
</svg>
