<svg width="134" height="120" viewBox="0 0 134 120" fill="none" xmlns="http://www.w3.org/2000/svg">
<path d="M71.1168 119C103.917 119 130.517 92.6 130.517 60C130.517 27.4 103.917 1 71.1168 1C38.3168 1 11.7168 27.4 11.7168 60C11.7168 92.6 38.3168 119 71.1168 119Z" fill="#F1F3F9" stroke="#D6DCE8" stroke-width="2" stroke-miterlimit="10"/>
<path d="M129 31.7996C131.265 31.7996 133.1 29.964 133.1 27.6996C133.1 25.4352 131.265 23.5996 129 23.5996C126.736 23.5996 124.9 25.4352 124.9 27.6996C124.9 29.964 126.736 31.7996 129 31.7996Z" fill="#F1F3F9"/>
<path d="M124.9 18.5004C126.446 18.5004 127.7 17.2468 127.7 15.7004C127.7 14.154 126.446 12.9004 124.9 12.9004C123.353 12.9004 122.1 14.154 122.1 15.7004C122.1 17.2468 123.353 18.5004 124.9 18.5004Z" fill="#F1F3F9"/>
<path d="M11.4992 27.6996C13.0456 27.6996 14.2992 26.446 14.2992 24.8996C14.2992 23.3532 13.0456 22.0996 11.4992 22.0996C9.95282 22.0996 8.69922 23.3532 8.69922 24.8996C8.69922 26.446 9.95282 27.6996 11.4992 27.6996Z" fill="#F1F3F9"/>
<path d="M5.2 89.3004C8.07188 89.3004 10.4 86.9723 10.4 84.1004C10.4 81.2285 8.07188 78.9004 5.2 78.9004C2.32812 78.9004 0 81.2285 0 84.1004C0 86.9723 2.32812 89.3004 5.2 89.3004Z" fill="#F1F3F9"/>
<path d="M125.843 44.393V98.5337C125.843 98.7569 125.843 98.8686 125.843 99.0918C125.731 102.217 124.28 104.897 122.047 106.794C120.149 108.469 117.582 109.585 114.791 109.585H27.3848C25.4871 109.585 23.701 109.139 22.1382 108.245C21.4684 107.911 20.7986 107.464 20.2404 106.906C19.0125 105.901 17.8962 104.45 17.3381 102.887C16.8915 101.771 16.5566 100.543 16.5566 99.3151V44.393C16.5566 44.393 21.1335 40.486 27.7197 35.1277C34.5291 29.4346 43.4595 22.067 51.2736 15.5924C55.7388 11.797 55.2923 12.2435 62.2134 6.43875C67.46 1.97354 75.1625 1.97354 80.4091 6.43875C81.7487 7.55505 83.1999 8.89461 84.5394 10.0109C87.4418 12.3552 90.5675 15.0343 93.9164 17.825C100.949 23.6298 108.652 30.1044 114.68 35.1277C120.819 40.1511 125.284 43.9465 125.843 44.393Z" fill="#F1F3F9" stroke="#D6DCE8" stroke-width="2" stroke-miterlimit="10"/>
<path opacity="0.14" d="M114.679 36.0155V55.4391L95.5905 66.937L89.8974 70.3976L77.8413 77.6535L72.1482 81.1141L69.6923 82.5652L67.3481 81.1141L61.9898 77.6535L50.4919 70.3976L45.1337 66.937L27.4961 55.8856V36.1271C34.3055 30.4339 43.2359 23.0663 51.0501 16.5918L93.8044 18.7128C100.949 24.6292 108.651 30.9921 114.679 36.0155Z" fill="#989FB0"/>
<path d="M110.885 20.6104V54.7692L93.4707 65.1508L88.3357 68.2765L77.2843 74.751L72.1493 77.8767L69.9167 79.1046L67.7957 77.8767L62.884 74.751L52.3908 68.2765L47.479 65.1508L31.4043 55.1041V20.6104C31.4043 17.0382 34.3067 14.1358 37.9905 14.1358H104.299C107.871 14.0242 110.885 17.0382 110.885 20.6104Z" fill="white" stroke="#D6DCE8" stroke-width="2" stroke-miterlimit="10"/>
<path d="M125.843 45.3926V100.091C125.731 103.217 124.28 105.896 122.047 107.794C120.149 109.468 117.582 110.585 114.791 110.585H27.3848C25.4871 110.585 23.701 110.138 22.1382 109.245C21.4684 108.91 20.7986 108.464 20.2404 107.905C19.0125 106.901 17.8962 105.45 17.3381 103.887C16.8915 102.77 16.5566 101.543 16.5566 100.315V100.203V45.3926L65.4507 75.9793L69.6926 78.6584L71.1438 77.7653L72.4834 76.9839L125.843 45.3926Z" fill="#738DFF"/>
<path d="M122.159 107.794C120.261 109.468 117.694 110.585 114.903 110.585H27.3848C25.4871 110.585 23.701 110.138 22.1382 109.245C21.4684 108.91 20.7986 108.464 20.2404 107.905C19.0125 106.901 17.8962 105.45 17.3381 103.887C16.8915 102.77 16.5566 101.543 16.5566 100.315V100.203V45.3926L22.2498 48.8531L71.1438 77.7653L72.4834 78.5467L72.595 78.6584L116.466 104.557L122.159 107.794Z" fill="white" stroke="#D6DCE8" stroke-width="2" stroke-miterlimit="10"/>
<path d="M125.842 45.3926V100.091C125.731 103.217 124.28 105.896 122.047 107.794C120.149 109.468 117.582 110.585 114.791 110.585H27.3846C25.4869 110.585 23.7008 110.138 22.1379 109.245C21.4682 108.91 20.7984 108.464 20.2402 107.905L25.8217 104.557L69.6924 78.6584L71.1436 77.7653L72.4832 76.9839L120.038 48.7415L125.842 45.3926Z" fill="white" stroke="#D6DCE8" stroke-width="2" stroke-miterlimit="10"/>
<path d="M112.67 83.6824H83.6459C82.9761 83.6824 82.418 83.1243 82.418 82.4545C82.418 81.7847 82.9761 81.2266 83.6459 81.2266H112.67C113.34 81.2266 113.898 81.7847 113.898 82.4545C114.009 83.1243 113.451 83.6824 112.67 83.6824Z" fill="#D6DCE8"/>
<path d="M112.67 92.0535H83.6459C82.9761 92.0535 82.418 91.4954 82.418 90.8256C82.418 90.1558 82.9761 89.5977 83.6459 89.5977H112.67C113.34 89.5977 113.898 90.1558 113.898 90.8256C114.009 91.4954 113.451 92.0535 112.67 92.0535Z" fill="#D6DCE8"/>
<path d="M118.699 109.47L122.271 107.684C122.16 107.795 122.16 107.795 122.048 107.907C122.048 107.907 122.048 107.907 121.936 107.907L118.699 109.47Z" fill="#526DFF"/>
<path d="M68.7749 57.9507C67.9312 57.9507 67.1372 57.6406 66.492 56.9688L55.5243 45.5481C54.2836 44.2561 54.2836 42.0857 55.5243 40.7937C56.765 39.5018 58.8493 39.5018 60.09 40.7937L68.7749 49.8373L89.2215 28.5979C90.4622 27.3059 92.5466 27.3059 93.7873 28.5979C95.028 29.8898 95.028 32.0602 93.7873 33.3522L71.0578 56.9688C70.4622 57.6406 69.6185 57.9507 68.7749 57.9507Z" fill="#D6DCE8" stroke="#AAB2C5" stroke-width="2" stroke-miterlimit="10"/>
</svg>
