<svg width="192" height="192" viewBox="0 0 192 192" fill="none" xmlns="http://www.w3.org/2000/svg">
<g clip-path="url(#clip0)">
<path d="M110.227 0L120.335 16.3949L110.227 31.1664C139.437 37.7388 161.339 63.8247 161.339 94.9418C161.334 101.865 160.223 108.743 158.048 115.316L162.655 136.447L185.007 130.86C189.632 119.448 192.012 107.253 192.016 94.9418C192.016 46.789 156.531 6.92404 110.243 0" fill="white" fill-opacity="0.43"/>
<path d="M82.7241 0.775513C70.5165 2.48926 58.7543 6.53725 48.0812 12.6979C6.32418 36.7694 -10.4905 87.4033 6.64008 130.9L15.8108 113.966L33.6653 115.32C24.7545 86.7723 36.436 54.7843 63.425 39.2274C69.4252 35.7667 75.9402 33.2851 82.7241 31.8762L98.7457 17.3183L82.7241 0.785371" fill="white" fill-opacity="0.43"/>
<path d="M25.6236 132.999L19.2959 155.125C28.237 166.549 39.6532 175.801 52.6874 182.187C65.7215 188.573 80.035 191.928 94.5531 191.999C109.071 192.069 123.417 188.855 136.513 182.596C149.609 176.337 161.115 167.197 170.167 155.862L150.905 156.404L143.142 140.278C136.989 146.925 129.525 152.228 121.221 155.855C112.916 159.482 103.95 161.354 94.8863 161.353C85.7017 161.341 76.6228 159.396 68.2417 155.644C59.8606 151.892 52.3656 146.418 46.2455 139.578L25.6203 133.006" fill="white" fill-opacity="0.43"/>
</g>
<defs>
<clipPath id="clip0">
<rect width="192" height="192" fill="white"/>
</clipPath>
</defs>
</svg>
