<svg width="109" height="109" viewBox="0 0 109 109" fill="none" xmlns="http://www.w3.org/2000/svg">
<g clip-path="url(#clip0)">
<path d="M62.5762 0L68.3149 9.30752L62.5762 17.6934C79.159 21.4246 91.5929 36.2338 91.5929 53.8993C91.5903 57.8296 90.9597 61.7342 89.7248 65.466L92.3401 77.4619L105.03 74.2904C107.655 67.8117 109.006 60.8884 109.009 53.8993C109.009 26.5625 88.8636 3.93084 62.5855 0" fill="white" fill-opacity="0.43"/>
<path d="M46.9629 0.440186C40.0326 1.41309 33.355 3.71117 27.2958 7.20861C3.59003 20.8742 -5.95581 49.6195 3.76936 74.3127L8.97567 64.6992L19.1118 65.4678C14.0531 49.2613 20.6847 31.1014 36.0066 22.2697C39.413 20.305 43.1116 18.8961 46.9629 18.0963L56.0585 9.83166L46.9629 0.445782" fill="white" fill-opacity="0.43"/>
<path d="M14.5464 75.5049L10.9541 88.066C16.0301 94.5511 22.5111 99.8036 29.9107 103.429C37.3103 107.055 45.4362 108.959 53.6782 108.999C61.9203 109.039 70.0644 107.214 77.4991 103.661C84.9338 100.108 91.4659 94.9192 96.6051 88.4839L85.6694 88.7917L81.2626 79.6372C77.7694 83.4105 73.5323 86.4212 68.8178 88.4802C64.1032 90.5392 59.0131 91.6018 53.8674 91.6013C48.6532 91.5946 43.4991 90.4902 38.741 88.3603C33.983 86.2303 29.728 83.1226 26.2536 79.2398L14.5445 75.5086" fill="white" fill-opacity="0.43"/>
</g>
<defs>
<clipPath id="clip0">
<rect width="109" height="109" fill="white"/>
</clipPath>
</defs>
</svg>
