<svg width="142" height="119" viewBox="0 0 142 119" fill="none" xmlns="http://www.w3.org/2000/svg">
<path d="M136.309 61.2876C136.309 77.14 129.834 91.4295 119.452 101.7C109.293 111.859 95.2267 117.999 79.7092 117.999C64.3033 117.999 50.2371 111.747 39.9665 101.7C29.5843 91.4295 23.1094 77.14 23.1094 61.2876C23.1094 29.9177 48.4509 4.57617 79.7092 4.57617C110.967 4.57617 136.309 30.0293 136.309 61.2876Z" fill="#F1F3F9" stroke="#D6DCE8" stroke-width="2" stroke-miterlimit="10"/>
<path d="M131.397 24.1132C133.925 24.1132 135.975 22.064 135.975 19.5361C135.975 17.0082 133.925 14.959 131.397 14.959C128.87 14.959 126.82 17.0082 126.82 19.5361C126.82 22.064 128.87 24.1132 131.397 24.1132Z" fill="#F1F3F9"/>
<path d="M138.097 6.25165C139.823 6.25165 141.222 4.85217 141.222 3.12583C141.222 1.39948 139.823 0 138.097 0C136.37 0 134.971 1.39948 134.971 3.12583C134.971 4.85217 136.37 6.25165 138.097 6.25165Z" fill="#F1F3F9"/>
<path d="M24.8954 24.0017C26.6217 24.0017 28.0212 22.6022 28.0212 20.8758C28.0212 19.1495 26.6217 17.75 24.8954 17.75C23.169 17.75 21.7695 19.1495 21.7695 20.8758C21.7695 22.6022 23.169 24.0017 24.8954 24.0017Z" fill="#F1F3F9"/>
<path d="M5.80511 84.286C9.01118 84.286 11.6102 81.687 11.6102 78.4809C11.6102 75.2748 9.01118 72.6758 5.80511 72.6758C2.59903 72.6758 0 75.2748 0 78.4809C0 81.687 2.59903 84.286 5.80511 84.286Z" fill="#F1F3F9"/>
<path d="M119.452 31.5938V101.702C109.293 111.861 95.227 118.001 79.7095 118.001C64.3036 118.001 50.2374 111.749 39.9668 101.702V31.5938H119.452Z" fill="white" stroke="#D6DCE8" stroke-width="2" stroke-miterlimit="10"/>
<path d="M75.8479 62.1141L93.8663 44.0957L99.1552 49.3846L75.9473 72.5924L75.9217 72.5668L75.8223 72.6661L60.2715 57.1153L65.5603 51.8264L75.8479 62.1141Z" fill="#D6DCE8" stroke="#AAB2C5" stroke-width="2" stroke-miterlimit="10"/>
<path d="M100.026 82.1641H59.3906V87.2993H100.026V82.1641Z" fill="#D6DCE8"/>
<path d="M100.026 93.4395H59.3906V98.5747H100.026V93.4395Z" fill="#D6DCE8"/>
<path d="M90.0906 104.826H69.3262V109.961H90.0906V104.826Z" fill="#D6DCE8"/>
</svg>
