<svg width="35" height="36" viewBox="0 0 35 36" fill="none" xmlns="http://www.w3.org/2000/svg">
<path d="M23.3327 3.41602V9.24935" stroke="#2F5E97" stroke-width="1.5" stroke-linecap="round" stroke-linejoin="round"/>
<path d="M11.6667 3.41602V9.24935" stroke="#2F5E97" stroke-width="1.5" stroke-linecap="round" stroke-linejoin="round"/>
<path d="M4.375 13.6237H30.625" stroke="#2F5E97" stroke-width="1.5" stroke-linecap="round" stroke-linejoin="round"/>
<path fill-rule="evenodd" clip-rule="evenodd" d="M27.7083 6.33203H7.29167C5.68021 6.33203 4.375 7.63724 4.375 9.2487V28.207C4.375 29.8185 5.68021 31.1237 7.29167 31.1237H27.7083C29.3198 31.1237 30.625 29.8185 30.625 28.207V9.2487C30.625 7.63724 29.3198 6.33203 27.7083 6.33203Z" stroke="#2F5E97" stroke-width="1.5" stroke-linecap="round" stroke-linejoin="round"/>
<path d="M17.5187 19.0618C17.3175 19.0618 17.1541 19.2252 17.1556 19.4264C17.1556 19.6277 17.3189 19.791 17.5202 19.791C17.7214 19.791 17.8848 19.6277 17.8848 19.4264C17.8848 19.2252 17.7214 19.0618 17.5187 19.0618" stroke="#2F5E97" stroke-width="1.5" stroke-linecap="round" stroke-linejoin="round"/>
<path d="M24.8097 19.0618C24.6085 19.0618 24.4452 19.2252 24.4466 19.4264C24.4466 19.6277 24.61 19.791 24.8112 19.791C25.0125 19.791 25.1758 19.6277 25.1758 19.4264C25.1758 19.2252 25.0125 19.0618 24.8097 19.0618" stroke="#2F5E97" stroke-width="1.5" stroke-linecap="round" stroke-linejoin="round"/>
<path d="M10.2277 24.8958C10.0265 24.8958 9.86313 25.0592 9.86459 25.2604C9.86459 25.4617 10.0279 25.625 10.2292 25.625C10.4304 25.625 10.5938 25.4617 10.5938 25.2604C10.5938 25.0592 10.4304 24.8958 10.2277 24.8958" stroke="#2F5E97" stroke-width="1.5" stroke-linecap="round" stroke-linejoin="round"/>
<path d="M17.5187 24.8958C17.3175 24.8958 17.1541 25.0592 17.1556 25.2604C17.1556 25.4617 17.3189 25.625 17.5202 25.625C17.7214 25.625 17.8848 25.4617 17.8848 25.2604C17.8848 25.0592 17.7214 24.8958 17.5187 24.8958" stroke="#2F5E97" stroke-width="1.5" stroke-linecap="round" stroke-linejoin="round"/>
</svg>
