<svg width="26" height="27" viewBox="0 0 26 27" fill="none" xmlns="http://www.w3.org/2000/svg">
<g clip-path="url(#clip0)">
<path d="M7.60556 15.931L6.93097 18.4494L4.46536 18.5015C3.7285 17.1348 3.31055 15.5711 3.31055 13.9095C3.31055 12.3026 3.70133 10.7874 4.39401 9.45312H4.39454L6.58963 9.85556L7.55121 12.0375C7.34995 12.6242 7.24026 13.2541 7.24026 13.9095C7.24033 14.6208 7.36918 15.3023 7.60556 15.931Z" fill="#FBBB00"/>
<path d="M22.5206 12.0996C22.6318 12.6858 22.6899 13.2911 22.6899 13.9098C22.6899 14.6036 22.6169 15.2803 22.478 15.933C22.0063 18.1543 20.7737 20.0939 19.0663 21.4664L19.0657 21.4659L16.3009 21.3248L15.9096 18.8821C17.0426 18.2176 17.928 17.1778 18.3944 15.933H13.2129V12.0996H18.47H22.5206Z" fill="#518EF8"/>
<path d="M19.0659 21.4661L19.0664 21.4666C17.4058 22.8014 15.2963 23.6 13 23.6C9.30984 23.6 6.10151 21.5375 4.46484 18.5021L7.60505 15.9316C8.42336 18.1156 10.5301 19.6703 13 19.6703C14.0617 19.6703 15.0562 19.3833 15.9097 18.8823L19.0659 21.4661Z" fill="#28B446"/>
<path d="M19.1862 6.45152L16.047 9.02149C15.1638 8.46939 14.1197 8.15045 13.0011 8.15045C10.4753 8.15045 8.32909 9.77644 7.55177 12.0387L4.39506 9.45436H4.39453C6.00723 6.34505 9.25603 4.2207 13.0011 4.2207C15.3522 4.2207 17.508 5.05821 19.1862 6.45152Z" fill="#F14336"/>
</g>
<defs>
<clipPath id="clip0">
<rect width="19.38" height="19.38" fill="white" transform="translate(3.31055 4.2207)"/>
</clipPath>
</defs>
</svg>
