<svg width="16" height="16" viewBox="0 0 16 16" fill="none" xmlns="http://www.w3.org/2000/svg">
    <g clip-path="url(#clip0)">
        <mask id="mask0" style="mask-type:alpha" maskUnits="userSpaceOnUse" x="0" y="0" width="16" height="16">
            <path fill-rule="evenodd" clip-rule="evenodd" d="M8.0004 1C6.89583 1 6.0004 1.89543 6.0004 3V5H10.0004V3C10.0004 1.89543 9.10497 1 8.0004 1ZM11.0004 5V3C11.0004 1.34315 9.65726 0 8.0004 0C6.34355 0 5.0004 1.34315 5.0004 3V5H3.36159C2.6191 5 1.98833 5.54321 1.87819 6.27749L0.850438 13.1291C0.623711 14.6407 1.79436 16 3.32278 16H12.678C14.2064 16 15.3771 14.6407 15.1504 13.1291L14.1226 6.27749C14.0125 5.54321 13.3817 5 12.6392 5H11.0004ZM10.0004 6V7.5C10.0004 7.77614 10.2243 8 10.5004 8C10.7765 8 11.0004 7.77614 11.0004 7.5V6H12.6392C12.8867 6 13.097 6.18107 13.1337 6.42583L14.1614 13.2775C14.2975 14.1844 13.5951 15 12.678 15H3.32278C2.40573 15 1.70334 14.1844 1.83937 13.2775L2.86712 6.42583C2.90384 6.18107 3.11409 6 3.36159 6H5.0004V7.5C5.0004 7.77614 5.22426 8 5.5004 8C5.77655 8 6.0004 7.77614 6.0004 7.5V6H10.0004Z" fill="black"/>
        </mask>
        <g mask="url(#mask0)">
            <rect width="16" height="16" fill="#2F5E97"/>
        </g>
    </g>
</svg>
