<svg width="24" height="24" viewBox="0 0 24 24" fill="none" xmlns="http://www.w3.org/2000/svg">
<path d="M5.6333 5.63154C8.20835 3.05649 12.081 2.28616 15.4455 3.67977C18.81 5.07338 21.0037 8.35648 21.0037 11.9982C21.0037 15.6398 18.81 18.9229 15.4455 20.3165C12.081 21.7101 8.20835 20.9398 5.6333 18.3648" stroke="#2F5E97" stroke-width="1.5" stroke-linecap="round" stroke-linejoin="round"/>
<path fill-rule="evenodd" clip-rule="evenodd" d="M15.5004 8.49805H10.0501C9.3874 8.49805 8.80317 8.93274 8.61275 9.56749L7.56232 13.069C7.42602 13.5233 7.51257 14.0153 7.79573 14.3959C8.07889 14.7765 8.52531 15.0008 8.99966 15.0008H14.4499C15.1126 15.0008 15.6969 14.5661 15.8873 13.9313L16.9377 10.4299C17.074 9.9755 16.9875 9.48346 16.7043 9.1029C16.4211 8.72233 15.9747 8.49805 15.5004 8.49805V8.49805Z" stroke="#2F5E97" stroke-width="1.5" stroke-linecap="round" stroke-linejoin="round"/>
<path d="M13.9012 11.248L11.9003 12.2485L10.8999 11.248" stroke="#2F5E97" stroke-width="1.5" stroke-linecap="round" stroke-linejoin="round"/>
<path d="M5.99783 8.9982L2.99658 8.99831" stroke="#2F5E97" stroke-width="1.5" stroke-linecap="round" stroke-linejoin="round"/>
<path d="M4.99742 15.0002H2.99658" stroke="#2F5E97" stroke-width="1.5" stroke-linecap="round" stroke-linejoin="round"/>
<path d="M4.99734 11.9982L1.99609 11.9983" stroke="#2F5E97" stroke-width="1.5" stroke-linecap="round" stroke-linejoin="round"/>
</svg>
